REM DIRINDEX 1\2,1\3,1\4
REM DIRNAME cjc151,folder01,folder02,folder03
TITLE ""
FILE "004 004_TOEFL_3900.mp3" MP3
  TRACK 01 AUDIO
    TITLE "2:cjc151_0135"
    INDEX 01 00:00:00
  TRACK 02 AUDIO
    TITLE "0:"
    INDEX 01 00:01:09
  TRACK 03 AUDIO
    TITLE "3:cjc151_0136"
    INDEX 01 00:02:65
  TRACK 04 AUDIO
    TITLE "0:"
    INDEX 01 00:06:28
  TRACK 05 AUDIO
    TITLE "2:cjc151_0137"
    INDEX 01 00:08:07
  TRACK 06 AUDIO
    TITLE "0:"
    INDEX 01 00:09:08
  TRACK 07 AUDIO
    TITLE "3:cjc151_0138"
    INDEX 01 00:10:63
  TRACK 08 AUDIO
    TITLE "0:"
    INDEX 01 00:15:01
  TRACK 09 AUDIO
    TITLE "2:cjc151_0139"
    INDEX 01 00:16:55
  TRACK 10 AUDIO
    TITLE "0:"
    INDEX 01 00:17:69
  TRACK 11 AUDIO
    TITLE "3:cjc151_0140"
    INDEX 01 00:19:48
  TRACK 12 AUDIO
    TITLE "0:"
    INDEX 01 00:22:72
  TRACK 13 AUDIO
    TITLE "2:cjc151_0141"
    INDEX 01 00:24:53
  TRACK 14 AUDIO
    TITLE "0:"
    INDEX 01 00:27:28
  TRACK 15 AUDIO
    TITLE "3:cjc151_0142"
    INDEX 01 00:29:07
  TRACK 16 AUDIO
    TITLE "0:"
    INDEX 01 00:32:74
  TRACK 17 AUDIO
    TITLE "2:cjc151_0143"
    INDEX 01 00:34:55
  TRACK 18 AUDIO
    TITLE "0:"
    INDEX 01 00:35:68
  TRACK 19 AUDIO
    TITLE "3:cjc151_0144"
    INDEX 01 00:37:52
  TRACK 20 AUDIO
    TITLE "0:"
    INDEX 01 00:40:73
  TRACK 21 AUDIO
    TITLE "2:cjc151_0145"
    INDEX 01 00:42:57
  TRACK 22 AUDIO
    TITLE "0:"
    INDEX 01 00:43:68
  TRACK 23 AUDIO
    TITLE "3:cjc151_0146"
    INDEX 01 00:45:51
  TRACK 24 AUDIO
    TITLE "0:"
    INDEX 01 00:49:02
  TRACK 25 AUDIO
    TITLE "2:cjc151_0147"
    INDEX 01 00:50:58
  TRACK 26 AUDIO
    TITLE "0:"
    INDEX 01 00:51:48
  TRACK 27 AUDIO
    TITLE "3:cjc151_0148"
    INDEX 01 00:53:31
  TRACK 28 AUDIO
    TITLE "0:"
    INDEX 01 00:57:13
  TRACK 29 AUDIO
    TITLE "2:cjc151_0149"
    INDEX 01 00:58:67
  TRACK 30 AUDIO
    TITLE "0:"
    INDEX 01 00:59:71
  TRACK 31 AUDIO
    TITLE "3:cjc151_0150"
    INDEX 01 01:01:52
  TRACK 32 AUDIO
    TITLE "0:"
    INDEX 01 01:04:52
  TRACK 33 AUDIO
    TITLE "2:cjc151_0151"
    INDEX 01 01:06:32
  TRACK 34 AUDIO
    TITLE "0:"
    INDEX 01 01:07:53
  TRACK 35 AUDIO
    TITLE "3:cjc151_0152"
    INDEX 01 01:09:32
  TRACK 36 AUDIO
    TITLE "0:"
    INDEX 01 01:13:47
  TRACK 37 AUDIO
    TITLE "2:cjc151_0153"
    INDEX 01 01:15:27
  TRACK 38 AUDIO
    TITLE "0:"
    INDEX 01 01:16:50
  TRACK 39 AUDIO
    TITLE "3:cjc151_0154"
    INDEX 01 01:18:29
  TRACK 40 AUDIO
    TITLE "0:"
    INDEX 01 01:22:46
  TRACK 41 AUDIO
    TITLE "2:cjc151_0155"
    INDEX 01 01:24:24
  TRACK 42 AUDIO
    TITLE "0:"
    INDEX 01 01:25:33
  TRACK 43 AUDIO
    TITLE "3:cjc151_0156"
    INDEX 01 01:27:14
  TRACK 44 AUDIO
    TITLE "0:"
    INDEX 01 01:31:12
  TRACK 45 AUDIO
    TITLE "2:cjc151_0157"
    INDEX 01 01:32:64
  TRACK 46 AUDIO
    TITLE "0:"
    INDEX 01 01:33:64
  TRACK 47 AUDIO
    TITLE "3:cjc151_0158"
    INDEX 01 01:35:45
  TRACK 48 AUDIO
    TITLE "0:"
    INDEX 01 01:38:28
  TRACK 49 AUDIO
    TITLE "2:cjc151_0159"
    INDEX 01 01:40:11
  TRACK 50 AUDIO
    TITLE "0:"
    INDEX 01 01:41:38
  TRACK 51 AUDIO
    TITLE "3:cjc151_0160"
    INDEX 01 01:43:17
  TRACK 52 AUDIO
    TITLE "0:"
    INDEX 01 01:47:50
  TRACK 53 AUDIO
    TITLE "2:cjc151_0161"
    INDEX 01 01:49:32
  TRACK 54 AUDIO
    TITLE "0:"
    INDEX 01 01:50:31
  TRACK 55 AUDIO
    TITLE "3:cjc151_0162"
    INDEX 01 01:52:10
  TRACK 56 AUDIO
    TITLE "0:"
    INDEX 01 01:56:41
  TRACK 57 AUDIO
    TITLE "2:cjc151_0163"
    INDEX 01 01:58:19
  TRACK 58 AUDIO
    TITLE "0:"
    INDEX 01 01:59:26
  TRACK 59 AUDIO
    TITLE "3:cjc151_0164"
    INDEX 01 02:01:05
  TRACK 60 AUDIO
    TITLE "0:"
    INDEX 01 02:04:72
  TRACK 61 AUDIO
    TITLE "2:cjc151_0165"
    INDEX 01 02:06:52
  TRACK 62 AUDIO
    TITLE "0:"
    INDEX 01 02:08:01
  TRACK 63 AUDIO
    TITLE "3:cjc151_0166"
    INDEX 01 02:09:54
  TRACK 64 AUDIO
    TITLE "0:"
    INDEX 01 02:13:65
  TRACK 65 AUDIO
    TITLE "2:cjc151_0167"
    INDEX 01 02:15:49
  TRACK 66 AUDIO
    TITLE "0:"
    INDEX 01 02:16:44
  TRACK 67 AUDIO
    TITLE "3:cjc151_0168"
    INDEX 01 02:18:25
  TRACK 68 AUDIO
    TITLE "0:"
    INDEX 01 02:22:29
  TRACK 69 AUDIO
    TITLE "2:cjc151_0169"
    INDEX 01 02:24:10
  TRACK 70 AUDIO
    TITLE "0:"
    INDEX 01 02:25:29
  TRACK 71 AUDIO
    TITLE "3:cjc151_0170"
    INDEX 01 02:27:03
  TRACK 72 AUDIO
    TITLE "0:"
    INDEX 01 02:31:24
  TRACK 73 AUDIO
    TITLE "2:cjc151_0171"
    INDEX 01 02:33:09
  TRACK 74 AUDIO
    TITLE "0:"
    INDEX 01 02:34:09
  TRACK 75 AUDIO
    TITLE "3:cjc151_0172"
    INDEX 01 02:35:63
  TRACK 76 AUDIO
    TITLE "0:"
    INDEX 01 02:39:16
  TRACK 77 AUDIO
    TITLE "2:cjc151_0173"
    INDEX 01 02:40:70
  TRACK 78 AUDIO
    TITLE "0:"
    INDEX 01 02:42:12
  TRACK 79 AUDIO
    TITLE "3:cjc151_0174"
    INDEX 01 02:43:66
  TRACK 80 AUDIO
    TITLE "0:"
    INDEX 01 02:47:33
  TRACK 81 AUDIO
    TITLE "2:cjc151_0175"
    INDEX 01 02:49:12
  TRACK 82 AUDIO
    TITLE "0:"
    INDEX 01 02:50:27
  TRACK 83 AUDIO
    TITLE "3:cjc151_0176"
    INDEX 01 02:52:09
  TRACK 84 AUDIO
    TITLE "0:"
    INDEX 01 02:55:27
  TRACK 85 AUDIO
    TITLE "2:cjc151_0177"
    INDEX 01 02:57:04
  TRACK 86 AUDIO
    TITLE "0:"
    INDEX 01 02:57:74
  TRACK 87 AUDIO
    TITLE "3:cjc151_0178"
    INDEX 01 02:59:52
  TRACK 88 AUDIO
    TITLE "0:"
    INDEX 01 03:03:61
